<svg xmlns="http://www.w3.org/2000/svg" width="326pt" height="188pt" viewBox="0 0 325.81 188">
    <g class="graph">
        <path fill="#fff" d="M0 188V0h325.81v188z"/>
        <g class="node" transform="translate(4 184)">
            <ellipse cx="110.17" cy="-162" fill="none" stroke="#000" rx="47.26" ry="18"/>
            <text x="110.17" y="-156.95" font-family="Times,serif" font-size="14" text-anchor="middle">:core:data</text>
        </g>
        <g class="node" transform="translate(4 184)">
            <ellipse cx="65.17" cy="-18" fill="none" stroke="#000" rx="65.17" ry="18"/>
            <text x="65.17" y="-12.95" font-family="Times,serif" font-size="14" text-anchor="middle">:core:common</text>
        </g>
        <g stroke="#000" class="edge">
            <path fill="none" d="M84.92 36.51C69.47 45.36 51.93 58.54 43.17 76c-9.89 19.73-1.73 43.85 7.98 62"/>
            <path d="m54.16 136.21 2 10.4-8.05-6.88z"/>
        </g>
        <g class="node" transform="translate(4 184)">
            <ellipse cx="254.17" cy="-90" fill="none" stroke="#000" rx="63.63" ry="18"/>
            <text x="254.17" y="-84.95" font-family="Times,serif" font-size="14" text-anchor="middle">:core:database</text>
        </g>
        <g stroke="red" stroke-width="2" class="edge">
            <path fill="none" d="m142.62 36.83 74.26 36.1"/>
            <path fill="red" d="m216.85 69.02 7.46 7.52-10.52-1.22z"/>
        </g>
        <g class="node" transform="translate(4 184)">
            <ellipse cx="110.17" cy="-90" fill="none" stroke="#000" rx="62.1" ry="18"/>
            <text x="110.17" y="-84.95" font-family="Times,serif" font-size="14" text-anchor="middle">:core:network</text>
        </g>
        <g stroke="#000" class="edge">
            <path fill="none" d="M114.17 40.3v24.16"/>
            <path d="m117.67 64.38-3.5 10-3.5-10z"/>
        </g>
        <g class="node" transform="translate(4 184)">
            <ellipse cx="229.17" cy="-18" fill="none" stroke="#000" rx="55.45" ry="18"/>
            <text x="229.17" y="-12.95" font-family="Times,serif" font-size="14" text-anchor="middle">:core:model</text>
        </g>
        <g stroke="red" stroke-width="2" class="edge">
            <path fill="none" d="M251.99 112.3c-2.69 7.55-5.92 16.58-8.93 25.02"/>
            <path fill="red" d="m246.96 136.8-6.66 8.24.06-10.59z"/>
        </g>
        <g stroke="#000" class="edge">
            <path fill="none" d="M103.28 111.95c-5.14 7.99-11.4 17.72-17.14 26.65"/>
            <path d="m89.13 140.42-8.35 6.52 2.47-10.31z"/>
        </g>
        <g stroke="#000" class="edge">
            <path fill="none" d="M140.88 110.71c16.76 9.86 38.58 22.7 56.8 33.41"/>
            <path d="m199.22 140.97 6.85 8.09-10.4-2.06z"/>
        </g>
    </g>
</svg>
